<svg
  xmlns="http://www.w3.org/2000/svg"
  fill="none"
  viewBox="0 0 24 24"
  stroke-width="1.5"
  stroke="currentColor"
  class="w-5 h-5"
>
  <path d="M12 9a3.02 3.02 0 0 0-3 3c0 1.642 1.358 3 3 3 1.641 0 3-1.358 3-3 0-1.641-1.359-3-3-3z"></path>
  <path
    stroke-linecap="round"
    stroke-linejoin="round"
    d="M3.5868 13.7788C5.36623 15.5478 8.46953 17.9999 12.0002 17.9999C15.5308 17.9999 18.6335 15.5478 20.413 13.7788C20.8823 13.3123 21.1177 13.0782 21.2671 12.6201C21.3738 12.2933 21.3738 11.7067 21.2671 11.3799C21.1177 10.9218 20.8823 10.6877 20.413 10.2211C18.6335 8.45208 15.5308 6 12.0002 6C8.46953 6 5.36623 8.45208 3.5868 10.2211C3.11714 10.688 2.88229 10.9216 2.7328 11.3799C2.62618 11.7067 2.62618 12.2933 2.7328 12.6201C2.88229 13.0784 3.11714 13.3119 3.5868 13.7788Z"
  />
</svg>
